<svg width="53" height="53" fill="none" xmlns="http://www.w3.org/2000/svg"><path d="M53 26.5C53 41.136 41.136 53 26.5 53S0 41.136 0 26.5 11.864 0 26.5 0 53 11.864 53 26.5z" fill="#fff" fill-opacity=".5"/><path d="M50.83 26.5c0 13.438-10.892 24.33-24.33 24.33-13.437 0-24.33-10.892-24.33-24.33 0-13.437 10.893-24.33 24.33-24.33 13.438 0 24.33 10.893 24.33 24.33z" fill="#fff" fill-opacity=".5"/><path fill-rule="evenodd" clip-rule="evenodd" d="M26.5 50.477c13.242 0 23.977-10.734 23.977-23.977 0-13.242-10.734-23.977-23.977-23.977-13.242 0-23.977 10.735-23.977 23.977S13.258 50.477 26.5 50.477zm0 .354c13.438 0 24.33-10.893 24.33-24.33C50.83 13.062 39.939 2.17 26.5 2.17 13.063 2.17 2.17 13.063 2.17 26.5c0 13.438 10.893 24.33 24.33 24.33z" fill="#000"/><path d="M48.97 26.5c0 12.41-10.06 22.47-22.47 22.47-12.41 0-22.47-10.06-22.47-22.47 0-12.41 10.06-22.47 22.47-22.47 12.41 0 22.47 10.06 22.47 22.47z" fill="#fff"/><path fill-rule="evenodd" clip-rule="evenodd" d="M48.968 26.862l-.707-.011a22.7 22.7 0 000-.701l.707-.012a22.917 22.917 0 010 .724zm-.1-2.52l-.703.066a21.98 21.98 0 00-.077-.694l.7-.09c.03.238.058.477.08.717zm-.379-2.492l-.691.145c-.048-.228-.1-.454-.155-.68l.686-.168c.057.233.11.467.16.703zm-.657-2.433l-.671.222c-.073-.22-.15-.44-.23-.657l.663-.245c.083.225.162.452.238.68zm-.928-2.343l-.641.296c-.098-.21-.2-.42-.303-.628l.631-.317c.108.214.212.43.313.649zm-1.185-2.224l-.604.367c-.121-.2-.245-.396-.372-.59l.592-.387c.131.201.259.405.384.61zm-1.427-2.077l-.56.432a21.969 21.969 0 00-.435-.546l.545-.45c.153.186.303.374.45.564zm-1.65-1.905l-.508.491a21.865 21.865 0 00-.493-.493l.492-.508c.172.167.342.337.509.51zm-1.852-1.71l-.45.545c-.179-.148-.36-.293-.545-.435l.432-.56c.19.147.378.297.563.45zm-2.03-1.493l-.386.592a21.689 21.689 0 00-.59-.372l.366-.604c.206.125.409.253.61.384zM36.575 6.41l-.317.632a21.589 21.589 0 00-.628-.304l.296-.64c.219.1.435.204.65.312zm-2.312-1.003l-.244.663c-.218-.08-.437-.157-.658-.23l.222-.67c.229.075.455.154.68.237zm-2.41-.735l-.168.686a21.646 21.646 0 00-.68-.154l.145-.692c.236.05.47.103.703.16zm-2.478-.46l-.09.702c-.23-.03-.46-.056-.693-.078l.067-.703c.24.023.479.05.716.08zm-2.513-.179l-.011.707a22.207 22.207 0 00-.701 0l-.012-.707a22.917 22.917 0 01.724 0zm-2.52.1l.066.703c-.232.022-.463.048-.694.078l-.09-.701c.238-.03.477-.057.717-.08zm-2.492.379l.145.692c-.228.048-.454.1-.68.154l-.168-.686c.233-.057.467-.11.703-.16zm-2.433.657l.222.671c-.22.073-.44.15-.657.23l-.245-.663c.225-.083.452-.162.68-.238zm-2.343.928l.296.641c-.21.098-.42.2-.628.304l-.317-.632c.214-.108.43-.212.649-.313zM14.85 7.281a22.46 22.46 0 00-.61.384l.386.592c.195-.127.392-.25.59-.372l-.366-.604zm-2.077 1.427l.432.56a22.61 22.61 0 00-.546.435l-.45-.545c.186-.153.374-.303.564-.45zm-1.905 1.65c-.173.167-.343.337-.51.51l.508.491c.162-.167.326-.331.493-.493l-.492-.508zm-1.71 1.852l.545.45c-.148.179-.293.36-.435.545l-.56-.432c.147-.19.297-.378.45-.563zm-1.493 2.03l.592.386c-.127.195-.25.392-.372.59l-.604-.366c.125-.205.253-.409.384-.61zM6.41 16.425l.632.317a21.33 21.33 0 00-.304.628l-.64-.296c.1-.219.204-.435.312-.65zm-1.003 2.312l.663.245c-.08.217-.157.437-.23.657l-.67-.222c.075-.228.154-.455.237-.68zm-.735 2.41l.686.168a21.64 21.64 0 00-.154.68l-.692-.145c.05-.236.103-.47.16-.703zm-.46 2.478l.702.09c-.03.23-.056.46-.078.693l-.703-.067c.023-.24.05-.479.08-.716zm-.179 2.513a22.907 22.907 0 000 .724l.707-.011a22.207 22.207 0 010-.701l-.707-.012zm.1 2.52l.703-.066c.022.232.048.464.078.694l-.701.09a22.54 22.54 0 01-.08-.717zm.379 2.492l.692-.145c.048.228.1.455.154.68l-.686.168c-.057-.233-.11-.467-.16-.703zm.657 2.433l.671-.222c.073.22.15.44.23.658l-.663.244a22.302 22.302 0 01-.238-.68zm.928 2.343l.641-.296c.098.21.2.42.304.628l-.632.317c-.108-.214-.212-.43-.313-.649zm1.185 2.224c.125.206.253.409.384.61l.592-.386a21.689 21.689 0 01-.372-.59l-.604.366zm1.427 2.078l.56-.433c.142.184.287.366.435.546l-.545.45a22.575 22.575 0 01-.45-.563zm1.65 1.905l.508-.492c.162.167.326.331.493.493l-.492.508a22.437 22.437 0 01-.509-.51zm1.852 1.71l.45-.546c.179.148.36.293.545.436l-.432.559c-.19-.147-.378-.297-.563-.45zm2.03 1.492l.386-.592c.195.127.392.251.59.372l-.366.604a22.313 22.313 0 01-.61-.384zm2.185 1.256l.317-.631c.208.104.417.205.628.303l-.296.641a19.4 19.4 0 01-.65-.313zm2.312 1.003l.245-.663c.217.08.437.157.657.23l-.222.67a22.438 22.438 0 01-.68-.237zm2.41.735l.168-.686c.226.055.452.107.68.155l-.145.691a22.44 22.44 0 01-.703-.16zm2.478.46l.09-.701c.23.029.46.055.693.077l-.067.703c-.24-.022-.479-.05-.716-.08zm2.513.179l.012-.707a22.702 22.702 0 00.7 0l.012.707a22.904 22.904 0 01-.724 0zm2.52-.1l-.066-.703c.232-.022.464-.048.694-.077l.09.7c-.238.03-.477.058-.717.08zm2.492-.379l-.145-.691c.228-.048.455-.1.68-.155l.168.686c-.233.057-.467.11-.703.16zm2.433-.657l-.222-.671c.22-.073.44-.15.658-.23l.244.663c-.225.083-.451.162-.68.238zm2.343-.928l-.296-.641c.21-.098.42-.2.628-.303l.317.631c-.214.108-.43.212-.649.313zm2.224-1.185l-.367-.604c.2-.121.396-.245.59-.372l.387.592c-.201.131-.404.259-.61.384zm2.078-1.427l-.433-.56c.184-.142.366-.287.546-.435l.45.545c-.186.153-.373.303-.563.45zm1.905-1.65l-.492-.508c.167-.162.331-.326.493-.493l.508.492c-.167.172-.337.342-.51.509zm1.71-1.852l-.546-.45c.148-.179.293-.36.436-.545l.559.432c-.147.19-.297.378-.45.563zm1.492-2.03l-.592-.386c.127-.195.251-.392.372-.59l.604.366c-.125.206-.253.409-.384.61zm1.256-2.185l-.631-.317c.104-.208.205-.417.303-.628l.641.296a19.4 19.4 0 01-.313.65zm1.003-2.312l-.663-.244c.08-.218.157-.437.23-.658l.67.222c-.075.229-.154.455-.237.68zm.735-2.41l-.686-.168c.055-.225.107-.452.155-.68l.691.145c-.05.236-.103.47-.16.703zm.46-2.478l-.701-.09c.029-.23.055-.46.077-.693l.703.067c-.022.24-.05.479-.08.716z" fill="#000"/><path fill-rule="evenodd" clip-rule="evenodd" d="M38.165 9.123A21.44 21.44 0 0026.58 5.746c-11.896 0-21.54 9.645-21.54 21.541 0 1.053.075 2.088.22 3.1H3.384a23.618 23.618 0 01-.203-3.1c0-12.923 10.476-23.4 23.4-23.4 4.598 0 8.886 1.326 12.503 3.616l-.918 1.62z" fill="#877CDD"/></svg>