<svg width="350" height="46" fill="none" xmlns="http://www.w3.org/2000/svg"><path d="M39.314 0C24.367 0 16.58 7.594 16.58 17.656c0 10.062 7.788 17.657 22.735 17.657V0zm-1.849 1.892v31.529c-11.795-.557-19.037-6.49-19.037-15.765 0-9.274 7.242-15.207 19.037-15.764zm-26.097-.011C3.874 4.731 0 10.576 0 17.657c0 7.08 3.874 12.925 11.368 15.776V1.88zM9.98 3.997v27.32c-5.56-2.763-8.594-7.549-8.594-13.66 0-6.112 3.033-10.898 8.594-13.66zm58.084 26.449c11.706 0 17.365-5.37 17.365-12.77 0-7.402-5.66-12.771-17.365-12.771-11.756 0-17.415 5.37-17.415 12.77 0 7.401 5.66 12.77 17.415 12.77zm0-30.426c14.946 0 22.734 7.593 22.734 17.656 0 10.061-7.788 17.656-22.734 17.656-14.948 0-22.736-7.595-22.736-17.656C45.328 7.613 53.116.02 68.064.02zm32.357 21.815c0 4.983 3.531 8.66 10.883 8.66 6.434 0 12.433-2.807 14.029-5.273v-9.626c-3.822-1.21-8.9-2.274-13.303-2.274-8.32 0-11.609 3.628-11.609 8.513zm24.912-13.834V.6l5.224-.581v34.586h-4.645l-.337-4.499-.049-.048c-2.467 2.37-7.739 5.273-14.85 5.273-9.966 0-15.576-5.66-15.576-13.545 0-7.643 5.224-13.302 16.446-13.302 4.934 0 9.965 1.16 13.787 2.854l.049-.049-.049-3.29zm8.772 1.209h6.094l7.788 13.303 4.451 7.546 12.19-20.85h6.144l-16.4 27.284c-3.53 5.804-7.206 7.546-11.899 7.546-2.128 0-4.498-.338-7.111-.871v-4.063c1.887.339 4.258.87 6.433.87 3.145 0 5.757-1.112 7.595-4.208l.533-.968-15.818-25.59zM173.1 28.414c6.724 1.548 10.739 2.08 15.866 2.08 3.339 0 12.432-.29 12.432-3.58 0-2.902-5.708-2.853-11.899-2.902-7.837-.193-16.786-.725-16.786-7.45 0-7.642 10.545-8.077 16.302-8.077 4.693 0 9.868.484 15.48 1.45l-.871 4.838c-5.999-1.064-10.158-1.403-15.528-1.403-4.934 0-10.062.339-10.062 3.193s5.322 2.854 11.32 2.902c7.932.097 17.366.388 17.366 7.402 0 7.981-13.254 8.465-18.334 8.465-5.66 0-9.965-.533-16.302-2.129l1.016-4.789zm38.778 6.192V9.404l5.224-.58v25.782h-5.224zm0-34.247h5.224v5.804h-5.224V.359zm16.102 21.476c0 4.983 3.532 8.66 10.885 8.66 6.433 0 12.431-2.806 14.028-5.273v-9.626c-3.822-1.21-8.901-2.274-13.302-2.274-8.321 0-11.611 3.628-11.611 8.514zm24.961 8.273l-.048-.049c-2.516 2.37-7.547 5.273-14.658 5.273-9.964 0-15.576-5.66-15.576-13.544 0-7.644 5.225-13.303 16.448-13.303 4.933 0 9.964 1.161 13.786 2.854l.048-.049.145-1.838 5.031-.58v23.17c0 7.788-5.805 13.448-19.93 13.448-7.11 0-11.997-1.403-13.69-2.031l.968-4.548c1.402.436 6.385 1.742 12.674 1.742 10.98 0 14.754-3.628 14.754-8.61l.048-1.935zm40.364 4.498V21.788c0-4.838-2.612-8.466-10.883-8.466-4.5 0-8.901 1.162-12.675 2.274v19.01h-5.224V.601l5.224-.58V8l-.048 3.29.048.048c3.677-1.548 8.03-2.854 13.206-2.854 11.078 0 15.576 5.66 15.576 13.254v12.867h-5.224zM310.407 9.21h7.788v4.354h-7.788v12.82c0 3.24 1.065 4.546 3.773 4.546 1.064 0 2.419-.146 4.015-.388v4.064c-2.032.435-3.87.726-5.467.726-4.739 0-7.546-2.225-7.546-8.949V13.564h-3.385V9.21h3.385V2.777l5.225-.58V9.21zm27.142-.728l-2.36-3.698-2.381 3.698-.383.511h5.506l-.382-.511zm-7.952 5.103h-3.167l7.185-11.161h3.147l7.185 11.161h-3.167l-1.425-2.062H331l-1.403 2.062zm17.66-11.161H350v11.161h-2.743V2.425z" fill="#fff"/></svg>