<svg width="40" height="32" fill="none" xmlns="http://www.w3.org/2000/svg"><path d="M19.963 5.22c9.127 0 13.882 4.636 13.882 10.78 0 6.144-4.755 10.781-13.882 10.781-9.127 0-13.883-4.637-13.883-10.78 0-6.145 4.756-10.782 13.883-10.782zm13.882 3.724v14.113c3.353-1.273 5.08-3.89 5.08-7.057 0-3.166-1.727-5.783-5.08-7.056zm-27.765 0v14.113C2.728 21.784 1 19.167 1 16c0-3.166 1.728-5.783 5.08-7.056z" stroke="#593DD2" stroke-width="1.5" stroke-miterlimit="10"/><path d="M29.663 5.219c-1.61-2.56-4.872-4.22-9.7-4.22-4.828 0-8.09 1.66-9.7 4.22h19.4zm-19.4 21.562c1.61 2.56 4.872 4.219 9.7 4.219 4.828 0 8.09-1.66 9.7-4.219h-19.4z" stroke="#593DD2" stroke-width="1.5" stroke-miterlimit="10"/></svg>