<svg width="39" height="32" fill="none" xmlns="http://www.w3.org/2000/svg"><path d="M25.334 21.41c-2.537 2.02-4.04 4.817-4.35 8.09l-.141 1.5h5.137l.207-1.121c.756-4.087 4.352-6.693 9.866-7.15l1.257-.104V17.94l-1.424.055c-4.307.169-7.956 1.35-10.552 3.416zm-12.358 0c-2.597-2.065-6.245-3.246-10.552-3.415L1 17.94v4.685l1.257.104c5.514.457 9.11 3.063 9.866 7.15L12.33 31h5.137l-.141-1.5c-.31-3.273-1.814-6.07-4.35-8.09zm-.853-19.288c-.756 4.086-4.352 6.692-9.865 7.15L1 9.374v4.685l1.424-.055c4.307-.168 7.955-1.35 10.552-3.415 2.536-2.02 4.04-4.816 4.35-8.09l.141-1.5H12.33l-.207 1.122zm23.929 7.149c-5.513-.457-9.109-3.063-9.865-7.15l-.207-1.12h-5.137l.141 1.499c.31 3.274 1.813 6.07 4.35 8.09 2.596 2.066 6.245 3.247 10.552 3.415l1.424.055V9.375l-1.258-.104z" stroke="#593DD2" stroke-width="1.5" stroke-miterlimit="10"/></svg>