<svg width="39" height="30" fill="none" xmlns="http://www.w3.org/2000/svg"><path d="M38.06 14.998V15c0 4.142-1.592 7.747-4.704 10.325C30.236 27.91 25.54 29.5 19.28 29.5c-6.26 0-10.955-1.6-14.076-4.19C2.092 22.727.5 19.122.5 15c0-4.142 1.592-7.747 4.704-10.325C8.324 2.09 13.02.5 19.28.5c6.26 0 10.965 1.59 14.091 4.175 3.117 2.578 4.708 6.182 4.689 10.323zM8.06 15c0 2.477.958 4.673 2.851 6.24 1.885 1.56 4.65 2.46 8.209 2.46 3.56 0 6.334-.9 8.223-2.46 1.898-1.566 2.858-3.762 2.837-6.242 0-2.477-.958-4.671-2.851-6.238-1.884-1.56-4.65-2.46-8.209-2.46-3.54 0-6.305.9-8.193 2.46C9.029 10.325 8.06 12.52 8.06 15z" stroke="#593DD2"/><path d="M20.78 12.72c0-.5.19-.915.553-1.214.372-.306.968-.526 1.827-.526.86 0 1.455.22 1.827.526.363.3.553.714.553 1.214s-.19.916-.553 1.215c-.372.306-.968.525-1.827.525-.86 0-1.455-.219-1.827-.525-.362-.3-.553-.714-.553-1.215z" stroke="#593DD2"/></svg>