<svg width="37" height="32" fill="none" xmlns="http://www.w3.org/2000/svg"><path d="M29.544 16.429c0 4.767-4.792 8.829-10.972 8.829S7.6 21.196 7.6 16.428c0-4.766 4.792-8.828 10.972-8.828s10.972 4.062 10.972 8.829z" stroke="#593DD2" stroke-width="1.2"/><path d="M31.703 28.025c2.174-1.73 3.463-4.128 3.728-6.934l.121-1.285H31.15l-.178.96c-.648 3.504-3.73 5.738-8.456 6.13l-1.078.088V31l1.221-.047c3.692-.144 6.819-1.157 9.044-2.928zm-26.853 0c2.225 1.771 5.353 2.784 9.044 2.928l1.221.047v-4.015l-1.078-.09c-4.725-.391-7.808-2.625-8.456-6.128l-.178-.961H1l.121 1.285c.265 2.806 1.555 5.204 3.729 6.934zm.731-16.791c.648-3.503 3.73-5.737 8.456-6.129l1.078-.089V1l-1.22.048c-3.692.144-6.82 1.156-9.045 2.927-2.174 1.73-3.464 4.128-3.729 6.934L1 12.195h4.403l.178-.961zm16.934-6.129c4.726.392 7.808 2.626 8.457 6.129l.177.96h4.404l-.122-1.285c-.265-2.806-1.554-5.203-3.728-6.934-2.226-1.77-5.353-2.783-9.045-2.927L21.438 1v4.016l1.077.09z" stroke="#593DD2" stroke-width="1.5" stroke-miterlimit="10"/></svg>