<svg width="46" height="22" fill="none" xmlns="http://www.w3.org/2000/svg"><path d="M28.25 11c0 2.752-1.469 5.298-3.95 7.18-2.482 1.884-5.945 3.07-9.8 3.07-3.855 0-7.318-1.186-9.8-3.07C2.22 16.299.75 13.753.75 11S2.219 5.702 4.7 3.82C7.182 1.935 10.645.75 14.5.75c3.855 0 7.318 1.186 9.8 3.07 2.481 1.882 3.95 4.428 3.95 7.18z" stroke="#593DD2" stroke-width="1.5"/><path d="M45.25 11c0 2.752-1.469 5.298-3.95 7.18-2.482 1.884-5.944 3.07-9.8 3.07-3.855 0-7.318-1.186-9.8-3.07-2.481-1.882-3.95-4.428-3.95-7.18s1.469-5.298 3.95-7.18C24.182 1.935 27.645.75 31.5.75c3.855 0 7.318 1.186 9.8 3.07 2.481 1.882 3.95 4.428 3.95 7.18z" stroke="#593DD2" stroke-width="1.5"/></svg>