<svg width="39" height="30" fill="none" xmlns="http://www.w3.org/2000/svg"><path d="M5.212 4.666c3.03-2.502 7.54-4.07 13.515-4.162-.478 3.735-2.23 6.987-5.21 9.416-3.036 2.475-7.377 4.12-13.008 4.51.131-3.906 1.721-7.303 4.703-9.765zm8.31 15.385c2.985 2.43 4.746 5.69 5.241 9.445-5.993-.092-10.512-1.66-13.547-4.163C2.231 22.872.64 19.473.509 15.57c5.63.372 9.972 2.007 13.013 4.482zM25.267 9.879C22.324 7.456 20.59 4.223 20.113.508c5.896.128 10.338 1.704 13.326 4.2 2.939 2.454 4.51 5.832 4.66 9.717-5.552-.427-9.834-2.078-12.832-4.546zm8.187 15.384c-2.993 2.496-7.445 4.08-13.34 4.227.477-3.714 2.21-6.946 5.153-9.369 2.998-2.468 7.281-4.12 12.834-4.546-.133 3.865-1.704 7.233-4.647 9.688z" stroke="#7000FF"/></svg>