<svg width="75" height="62" fill="none" xmlns="http://www.w3.org/2000/svg"><path d="M49.668 41.822c-5.073 4.037-8.082 9.631-8.7 16.179L40.685 61H50.96l.415-2.243c1.512-8.173 8.704-13.385 19.731-14.299l2.515-.208v-9.37l-2.849.11c-8.613.337-15.91 2.7-21.103 6.831zm-24.717 0c-5.192-4.133-12.49-6.495-21.103-6.831L1 34.88v9.37l2.515.208c11.027.914 18.218 6.126 19.73 14.3L23.662 61h10.273l-.282-3c-.619-6.547-3.627-12.141-8.7-16.178zM23.246 3.243c-1.513 8.174-8.704 13.386-19.731 14.3L1 17.75v9.37l2.848-.111c8.614-.337 15.91-2.7 21.104-6.83 5.073-4.038 8.081-9.633 8.7-16.18l.282-3H23.662l-.415 2.243zm47.859 14.298c-11.027-.913-18.219-6.125-19.731-14.299L50.959 1H40.685l.283 2.999c.618 6.547 3.627 12.142 8.7 16.179 5.193 4.132 12.49 6.494 21.103 6.831l2.849.111v-9.37l-2.515-.209z" stroke="#593DD2" stroke-width="1.5" stroke-miterlimit="10"/></svg>