<svg width="78" height="62" fill="none" xmlns="http://www.w3.org/2000/svg"><path d="M38.927 9.438c18.253 0 27.764 9.274 27.764 21.563 0 12.287-9.511 21.561-27.764 21.561-18.255 0-27.766-9.274-27.766-21.561 0-12.289 9.511-21.563 27.766-21.563z" stroke="#593DD2" stroke-width="1.5" stroke-miterlimit="10"/><path d="M66.69 16.888v28.225c6.706-2.546 10.161-7.78 10.161-14.112 0-6.333-3.455-11.568-10.16-14.113zm-55.529 0v28.225C4.456 42.567 1 37.333 1 31.001c0-6.333 3.456-11.568 10.161-14.113zm47.165-7.45C55.107 4.317 48.582 1 38.926 1c-9.656 0-16.181 3.318-19.4 8.438h38.8zm-38.8 43.124C22.745 57.682 29.27 61 38.926 61c9.656 0 16.181-3.319 19.4-8.438h-38.8z" stroke="#593DD2" stroke-width="1.5" stroke-miterlimit="10"/></svg>