<svg width="53" height="53" viewBox="0 0 53 53" fill="none" xmlns="http://www.w3.org/2000/svg">
<path d="M53 26.5C53 41.1355 41.1355 53 26.5 53C11.8645 53 0 41.1355 0 26.5C0 11.8645 11.8645 0 26.5 0C41.1355 0 53 11.8645 53 26.5Z" fill="white" fill-opacity="0.5"/>
<path d="M50.8307 26.5003C50.8307 39.9376 39.9376 50.8307 26.5003 50.8307C13.063 50.8307 2.16992 39.9376 2.16992 26.5003C2.16992 13.063 13.063 2.16992 26.5003 2.16992C39.9376 2.16992 50.8307 13.063 50.8307 26.5003Z" fill="white" fill-opacity="0.5"/>
<path fill-rule="evenodd" clip-rule="evenodd" d="M26.5003 50.4774C39.7425 50.4774 50.4774 39.7425 50.4774 26.5003C50.4774 13.2582 39.7425 2.52326 26.5003 2.52326C13.2582 2.52326 2.52326 13.2582 2.52326 26.5003C2.52326 39.7425 13.2582 50.4774 26.5003 50.4774ZM26.5003 50.8307C39.9376 50.8307 50.8307 39.9376 50.8307 26.5003C50.8307 13.063 39.9376 2.16992 26.5003 2.16992C13.063 2.16992 2.16992 13.063 2.16992 26.5003C2.16992 39.9376 13.063 50.8307 26.5003 50.8307Z" fill="black"/>
<path d="M48.9708 26.5001C48.9708 38.9103 38.9103 48.9708 26.5001 48.9708C14.0898 48.9708 4.0293 38.9103 4.0293 26.5001C4.0293 14.0898 14.0898 4.0293 26.5001 4.0293C38.9103 4.0293 48.9708 14.0898 48.9708 26.5001Z" fill="white"/>
<path fill-rule="evenodd" clip-rule="evenodd" d="M48.968 26.8617L48.2614 26.8505C48.2632 26.7339 48.2642 26.6171 48.2642 26.5001C48.2642 26.383 48.2632 26.2662 48.2614 26.1496L48.968 26.1384C48.9699 26.2588 48.9708 26.3793 48.9708 26.5001C48.9708 26.6208 48.9699 26.7414 48.968 26.8617ZM48.8685 24.3413L48.165 24.4084C48.1428 24.1759 48.117 23.9445 48.0876 23.7142L48.7886 23.6247C48.8189 23.8624 48.8456 24.1013 48.8685 24.3413ZM48.4891 21.85L47.7976 21.9955C47.7496 21.7673 47.698 21.5405 47.6429 21.315L48.3293 21.1472C48.3862 21.3801 48.4395 21.6144 48.4891 21.85ZM47.8316 19.4167L47.1609 19.6393C47.0876 19.4185 47.0109 19.1991 46.9307 18.9815L47.5939 18.7373C47.6766 18.9621 47.7559 19.1886 47.8316 19.4167ZM46.904 17.0737L46.2627 17.3705C46.1649 17.1592 46.0639 16.9497 45.9596 16.7422L46.591 16.4249C46.6987 16.6392 46.8031 16.8555 46.904 17.0737ZM45.7188 14.8501L45.1148 15.2169C44.994 15.0179 44.87 14.821 44.7429 14.6263L45.3348 14.2402C45.466 14.4413 45.594 14.6446 45.7188 14.8501ZM44.2917 12.7726L43.7325 13.2047C43.5902 13.0206 43.4451 12.8389 43.2971 12.6595L43.8423 12.2098C43.995 12.3949 44.1448 12.5826 44.2917 12.7726ZM42.6419 10.8675L42.1344 11.3592C41.9725 11.1921 41.808 11.0276 41.6409 10.8658L42.1326 10.3582C42.305 10.5252 42.4749 10.6951 42.6419 10.8675ZM40.7903 9.15786L40.3406 9.70298C40.1613 9.55501 39.9795 9.40986 39.7954 9.2676L40.2275 8.70842C40.4175 8.85528 40.6052 9.00512 40.7903 9.15786ZM38.7599 7.66529L38.3738 8.25718C38.1791 8.13015 37.9822 8.00616 37.7832 7.88527L38.1501 7.28131C38.3555 7.40612 38.5588 7.53414 38.7599 7.66529ZM36.5752 6.40911L36.2579 7.04054C36.0504 6.93625 35.8409 6.83519 35.6296 6.73741L35.9264 6.09609C36.1446 6.19705 36.3609 6.30141 36.5752 6.40911ZM34.2628 5.40623L34.0187 6.06939C33.801 5.98925 33.5817 5.9125 33.3608 5.83919L33.5834 5.16849C33.8115 5.2442 34.038 5.32347 34.2628 5.40623ZM31.8529 4.67078L31.6852 5.35725C31.4597 5.30215 31.2328 5.25056 31.0046 5.20254L31.1501 4.51102C31.3858 4.5606 31.62 4.61388 31.8529 4.67078ZM29.3754 4.21154L29.2859 4.91252C29.0556 4.8831 28.8242 4.85729 28.5917 4.83513L28.6588 4.13165C28.8988 4.15453 29.1377 4.18118 29.3754 4.21154ZM26.8617 4.03215L26.8505 4.73873C26.7339 4.73689 26.6171 4.73596 26.5001 4.73596C26.383 4.73596 26.2662 4.73689 26.1496 4.73873L26.1384 4.03215C26.2588 4.03025 26.3793 4.0293 26.5001 4.0293C26.6208 4.0293 26.7414 4.03025 26.8617 4.03215ZM24.3413 4.13165L24.4084 4.83513C24.1759 4.85729 23.9445 4.8831 23.7142 4.91251L23.6247 4.21154C23.8624 4.18118 24.1013 4.15453 24.3413 4.13165ZM21.85 4.51102L21.9955 5.20254C21.7673 5.25056 21.5405 5.30215 21.315 5.35725L21.1472 4.67078C21.3801 4.61388 21.6144 4.5606 21.85 4.51102ZM19.4167 5.16849L19.6393 5.83919C19.4185 5.9125 19.1991 5.98925 18.9815 6.06939L18.7373 5.40623C18.9621 5.32347 19.1886 5.2442 19.4167 5.16849ZM17.0737 6.09609L17.3705 6.73741C17.1592 6.83519 16.9497 6.93626 16.7422 7.04055L16.4249 6.40911C16.6392 6.30142 16.8555 6.19705 17.0737 6.09609ZM14.8501 7.28131C14.6446 7.40612 14.4413 7.53414 14.2402 7.66529L14.6263 8.25718C14.821 8.13015 15.0179 8.00616 15.2169 7.88527L14.8501 7.28131ZM12.7726 8.70842L13.2047 9.2676C13.0206 9.40987 12.8389 9.55501 12.6595 9.70298L12.2098 9.15787C12.3949 9.00512 12.5826 8.85528 12.7726 8.70842ZM10.8675 10.3582C10.6951 10.5252 10.5252 10.6951 10.3582 10.8675L10.8658 11.3592C11.0276 11.1921 11.1921 11.0276 11.3592 10.8658L10.8675 10.3582ZM9.15786 12.2098L9.70298 12.6595C9.55501 12.8389 9.40986 13.0206 9.2676 13.2047L8.70842 12.7727C8.85528 12.5826 9.00512 12.3949 9.15786 12.2098ZM7.66529 14.2402L8.25718 14.6263C8.13015 14.821 8.00616 15.0179 7.88527 15.2169L7.28131 14.8501C7.40612 14.6446 7.53414 14.4413 7.66529 14.2402ZM6.40911 16.4249L7.04054 16.7422C6.93625 16.9497 6.83519 17.1592 6.73741 17.3705L6.09609 17.0737C6.19705 16.8555 6.30141 16.6392 6.40911 16.4249ZM5.40623 18.7373L6.06939 18.9815C5.98925 19.1991 5.9125 19.4185 5.83919 19.6393L5.16849 19.4167C5.2442 19.1886 5.32347 18.9621 5.40623 18.7373ZM4.67078 21.1472L5.35725 21.315C5.30215 21.5405 5.25056 21.7673 5.20254 21.9955L4.51102 21.85C4.5606 21.6144 4.61388 21.3801 4.67078 21.1472ZM4.21154 23.6247L4.91252 23.7142C4.8831 23.9445 4.85729 24.1759 4.83513 24.4084L4.13165 24.3413C4.15453 24.1013 4.18118 23.8624 4.21154 23.6247ZM4.03215 26.1384C4.03025 26.2587 4.0293 26.3793 4.0293 26.5001C4.0293 26.6208 4.03025 26.7414 4.03215 26.8617L4.73873 26.8505C4.73689 26.7339 4.73596 26.6171 4.73596 26.5001C4.73596 26.383 4.73689 26.2662 4.73873 26.1496L4.03215 26.1384ZM4.13165 28.6588L4.83513 28.5917C4.85729 28.8242 4.8831 29.0556 4.91251 29.2859L4.21154 29.3754C4.18118 29.1377 4.15453 28.8988 4.13165 28.6588ZM4.51102 31.1501L5.20254 31.0046C5.25056 31.2328 5.30215 31.4597 5.35725 31.6852L4.67078 31.8529C4.61388 31.62 4.5606 31.3857 4.51102 31.1501ZM5.16849 33.5834L5.83919 33.3608C5.9125 33.5817 5.98925 33.801 6.06939 34.0187L5.40623 34.2628C5.32347 34.038 5.2442 33.8115 5.16849 33.5834ZM6.09609 35.9264L6.73741 35.6296C6.83519 35.8409 6.93626 36.0504 7.04055 36.2579L6.40911 36.5752C6.30142 36.3609 6.19705 36.1446 6.09609 35.9264ZM7.28131 38.1501C7.40612 38.3555 7.53414 38.5588 7.66529 38.7599L8.25718 38.3738C8.13015 38.1791 8.00616 37.9822 7.88527 37.7832L7.28131 38.1501ZM8.70842 40.2275L9.2676 39.7954C9.40987 39.9795 9.55501 40.1613 9.70298 40.3406L9.15787 40.7903C9.00512 40.6052 8.85528 40.4175 8.70842 40.2275ZM10.3582 42.1326L10.8658 41.6409C11.0276 41.808 11.1921 41.9725 11.3592 42.1344L10.8675 42.6419C10.6951 42.4749 10.5252 42.3051 10.3582 42.1326ZM12.2098 43.8423L12.6595 43.2971C12.8389 43.4451 13.0206 43.5903 13.2047 43.7325L12.7727 44.2917C12.5826 44.1448 12.3949 43.995 12.2098 43.8423ZM14.2402 45.3348L14.6263 44.7429C14.821 44.87 15.0179 44.994 15.2169 45.1148L14.8501 45.7188C14.6446 45.594 14.4413 45.466 14.2402 45.3348ZM16.4249 46.591L16.7422 45.9596C16.9497 46.0639 17.1592 46.1649 17.3705 46.2627L17.0737 46.904C16.8555 46.8031 16.6392 46.6987 16.4249 46.591ZM18.7373 47.5939L18.9815 46.9307C19.1991 47.0109 19.4185 47.0876 19.6393 47.1609L19.4167 47.8316C19.1886 47.7559 18.9621 47.6766 18.7373 47.5939ZM21.1472 48.3293L21.315 47.6429C21.5405 47.698 21.7673 47.7496 21.9955 47.7976L21.85 48.4891C21.6144 48.4395 21.3801 48.3862 21.1472 48.3293ZM23.6247 48.7886L23.7142 48.0876C23.9445 48.117 24.1759 48.1428 24.4084 48.165L24.3413 48.8685C24.1013 48.8456 23.8624 48.8189 23.6247 48.7886ZM26.1384 48.968L26.1496 48.2614C26.2662 48.2632 26.383 48.2642 26.5001 48.2642C26.6171 48.2642 26.7339 48.2632 26.8505 48.2614L26.8617 48.968C26.7414 48.9699 26.6208 48.9708 26.5001 48.9708C26.3793 48.9708 26.2587 48.9699 26.1384 48.968ZM28.6588 48.8685L28.5917 48.165C28.8242 48.1428 29.0556 48.117 29.2859 48.0876L29.3754 48.7886C29.1377 48.8189 28.8988 48.8456 28.6588 48.8685ZM31.1501 48.4891L31.0046 47.7976C31.2328 47.7496 31.4597 47.698 31.6852 47.6429L31.8529 48.3293C31.62 48.3862 31.3857 48.4395 31.1501 48.4891ZM33.5834 47.8316L33.3608 47.1609C33.5817 47.0876 33.801 47.0109 34.0187 46.9307L34.2628 47.5939C34.038 47.6766 33.8115 47.7559 33.5834 47.8316ZM35.9264 46.904L35.6296 46.2627C35.8409 46.1649 36.0504 46.0639 36.2579 45.9596L36.5752 46.591C36.3609 46.6987 36.1446 46.8031 35.9264 46.904ZM38.1501 45.7188L37.7832 45.1148C37.9822 44.994 38.1791 44.87 38.3738 44.7429L38.7599 45.3348C38.5588 45.466 38.3555 45.594 38.1501 45.7188ZM40.2275 44.2917L39.7954 43.7325C39.9795 43.5902 40.1613 43.4451 40.3406 43.2971L40.7903 43.8422C40.6052 43.995 40.4175 44.1448 40.2275 44.2917ZM42.1326 42.6419L41.6409 42.1344C41.808 41.9725 41.9725 41.808 42.1344 41.6409L42.6419 42.1326C42.4749 42.305 42.3051 42.4749 42.1326 42.6419ZM43.8423 40.7903L43.2971 40.3406C43.4451 40.1613 43.5903 39.9795 43.7325 39.7954L44.2917 40.2275C44.1448 40.4175 43.995 40.6052 43.8423 40.7903ZM45.3348 38.7599L44.7429 38.3738C44.87 38.1791 44.994 37.9822 45.1148 37.7832L45.7188 38.1501C45.594 38.3555 45.466 38.5588 45.3348 38.7599ZM46.591 36.5752L45.9596 36.2579C46.0639 36.0504 46.1649 35.8409 46.2627 35.6296L46.904 35.9264C46.8031 36.1446 46.6987 36.3609 46.591 36.5752ZM47.5939 34.2628L46.9307 34.0187C47.0109 33.801 47.0876 33.5817 47.1609 33.3608L47.8316 33.5834C47.7559 33.8115 47.6766 34.038 47.5939 34.2628ZM48.3293 31.8529L47.6429 31.6852C47.698 31.4597 47.7496 31.2328 47.7976 31.0046L48.4891 31.1501C48.4395 31.3858 48.3862 31.62 48.3293 31.8529ZM48.7886 29.3754L48.0876 29.2859C48.117 29.0556 48.1428 28.8242 48.165 28.5917L48.8685 28.6588C48.8456 28.8988 48.8189 29.1377 48.7886 29.3754Z" fill="black"/>
<path fill-rule="evenodd" clip-rule="evenodd" d="M38.1646 9.12331C34.8195 6.98549 30.8446 5.74637 26.5803 5.74637C14.6836 5.74637 5.03934 15.3906 5.03934 27.2873C5.03934 28.3398 5.11482 29.3746 5.26066 30.3867H3.38313C3.24894 29.3726 3.17969 28.3381 3.17969 27.2873C3.17969 14.3635 13.6565 3.88672 26.5803 3.88672C31.178 3.88672 35.466 5.21268 39.0828 7.50306L38.1646 9.12331Z" fill="#877CDD"/>
</svg>
