<svg width="40" height="32" viewBox="0 0 40 32" fill="none" xmlns="http://www.w3.org/2000/svg">
<path d="M19.9632 5.21917C29.0898 5.21917 33.8451 9.85623 33.8451 16.0005C33.8451 22.1438 29.0898 26.7812 19.9632 26.7812C10.8361 26.7812 6.08044 22.1438 6.08044 16.0005C6.08044 9.85623 10.8361 5.21917 19.9632 5.21917Z" stroke="#593DD2" stroke-width="1.5" stroke-miterlimit="10"/>
<path d="M33.8451 8.9438V23.0566C37.1978 21.7835 38.9256 19.1661 38.9256 16.0004C38.9256 12.8342 37.1978 10.2167 33.8451 8.9438Z" stroke="#593DD2" stroke-width="1.5" stroke-miterlimit="10"/>
<path d="M6.08049 8.9438V23.0566C2.72783 21.7835 1 19.1661 1 16.0004C1 12.8342 2.72783 10.2167 6.08049 8.9438Z" stroke="#593DD2" stroke-width="1.5" stroke-miterlimit="10"/>
<path d="M29.6627 5.21875C28.0535 2.65923 24.791 0.999802 19.9632 0.999802C15.1349 0.999802 11.8722 2.65923 10.263 5.21875H29.6627Z" stroke="#593DD2" stroke-width="1.5" stroke-miterlimit="10"/>
<path d="M10.263 26.7811C11.8722 29.3406 15.1347 31 19.9626 31C24.7908 31 28.0533 29.3406 29.6627 26.7811H10.263Z" stroke="#593DD2" stroke-width="1.5" stroke-miterlimit="10"/>
</svg>
