<svg width="39" height="32" viewBox="0 0 39 32" fill="none" xmlns="http://www.w3.org/2000/svg">
<path d="M25.3342 21.4108C22.7975 23.4294 21.2933 26.2268 20.9844 29.5005L20.8429 31H25.9798L26.1871 29.8787C26.9434 25.792 30.5392 23.186 36.0526 22.7291L37.3099 22.6249V17.9398L35.8858 17.9954C31.579 18.1636 27.9305 19.3447 25.3342 21.4108Z" stroke="#593DD2" stroke-width="1.5" stroke-miterlimit="10"/>
<path d="M12.9757 21.4108C10.3794 19.3447 6.73096 18.1636 2.42413 17.9954L1 17.9398V22.6249L2.25731 22.7291C7.77078 23.186 11.3666 25.792 12.1228 29.8787L12.3304 31H17.4672L17.3258 29.5005C17.0166 26.2268 15.5125 23.4294 12.9757 21.4108Z" stroke="#593DD2" stroke-width="1.5" stroke-miterlimit="10"/>
<path d="M12.1228 2.12169C11.3666 6.2084 7.77078 8.81443 2.25751 9.2711L1 9.37528V14.0605L2.42413 14.005C6.73096 13.8366 10.3794 12.6555 12.9757 10.5896C15.5125 8.57079 17.0166 5.77362 17.3258 2.49991L17.4672 1.00039H12.3304L12.1228 2.12169Z" stroke="#593DD2" stroke-width="1.5" stroke-miterlimit="10"/>
<path d="M36.0524 9.2711C30.5392 8.81443 26.9434 6.2084 26.1871 2.12169L25.9798 1.00039H20.8429L20.9844 2.49991C21.2933 5.77362 22.7975 8.57079 25.3342 10.5894C27.9305 12.6555 31.579 13.8366 35.8858 14.005L37.3101 14.0605V9.37528L36.0524 9.2711Z" stroke="#593DD2" stroke-width="1.5" stroke-miterlimit="10"/>
</svg>
