<svg width="39" height="30" viewBox="0 0 39 30" fill="none" xmlns="http://www.w3.org/2000/svg">
<path d="M38.06 14.9977V15C38.06 19.1423 36.468 22.7469 33.356 25.325C30.2352 27.9104 25.5398 29.5 19.28 29.5C13.0209 29.5 8.3255 27.9008 5.20433 25.3103C2.09169 22.7268 0.5 19.1219 0.5 15C0.5 10.8577 2.09202 7.2531 5.20398 4.67504C8.32484 2.08959 13.0202 0.5 19.28 0.5C25.5399 0.5 30.2454 2.08965 33.3713 4.67528C36.4881 7.25332 38.0794 10.8571 38.06 14.9977ZM8.06 15C8.06 17.4774 9.01778 19.673 10.9112 21.2402C12.7955 22.7998 15.5603 23.7 19.12 23.7C22.6795 23.7 25.454 22.7999 27.3433 21.2406C29.2415 19.6739 30.2006 17.4776 30.18 14.998C30.1795 12.5214 29.2217 10.3265 27.3288 8.75982C25.4445 7.20018 22.6797 6.3 19.12 6.3C15.5796 6.3 12.8155 7.20048 10.9267 8.75938C9.02904 10.3256 8.06 12.5209 8.06 15Z" stroke="#593DD2"/>
<path d="M20.78 12.7205C20.78 12.2202 20.9705 11.8053 21.3332 11.5062C21.7047 11.1998 22.3008 10.9805 23.16 10.9805C24.0192 10.9805 24.6154 11.1998 24.9869 11.5062C25.3496 11.8053 25.54 12.2202 25.54 12.7205C25.54 13.2207 25.3496 13.6356 24.9869 13.9347C24.6154 14.2411 24.0192 14.4605 23.16 14.4605C22.3008 14.4605 21.7047 14.2411 21.3332 13.9347C20.9705 13.6356 20.78 13.2207 20.78 12.7205Z" stroke="#593DD2"/>
</svg>
