<svg width="37" height="32" viewBox="0 0 37 32" fill="none" xmlns="http://www.w3.org/2000/svg">
<path d="M29.5436 16.4288C29.5436 21.1959 24.7521 25.2577 18.5719 25.2577C12.3916 25.2577 7.60012 21.1959 7.60012 16.4288C7.60012 11.6618 12.3916 7.6 18.5719 7.6C24.7521 7.6 29.5436 11.6618 29.5436 16.4288Z" stroke="#593DD2" stroke-width="1.2"/>
<path d="M31.7025 28.0252C33.8768 26.2949 35.1662 23.8971 35.431 21.091L35.5522 19.8057L31.1491 19.8057L30.9714 20.7668C30.3231 24.2698 27.2409 26.5036 22.515 26.8952L21.4372 26.9845L21.4372 31.0004L22.658 30.9528C26.3496 30.8086 29.477 29.7962 31.7025 28.0252Z" stroke="#593DD2" stroke-width="1.5" stroke-miterlimit="10"/>
<path d="M4.85002 28.0252C7.07548 29.7962 10.2028 30.8086 13.8945 30.9528L15.1152 31.0004L15.1152 26.9845L14.0375 26.8952C9.31155 26.5036 6.22936 24.2698 5.58113 20.7668L5.40321 19.8057L1.00006 19.8057L1.12134 21.091C1.38629 23.8971 2.67563 26.2949 4.85002 28.0252Z" stroke="#593DD2" stroke-width="1.5" stroke-miterlimit="10"/>
<path d="M5.581 11.2336C6.22924 7.7306 9.31142 5.4968 14.0372 5.10536L15.1151 5.01605L15.1151 1L13.8944 1.04761C10.2027 1.19199 7.07536 2.20438 4.8499 3.97516C2.67551 5.70563 1.38617 8.10328 1.12121 10.9094L0.99994 12.1947L5.40309 12.1947L5.581 11.2336Z" stroke="#593DD2" stroke-width="1.5" stroke-miterlimit="10"/>
<path d="M22.5154 5.10535C27.2412 5.4968 30.3234 7.7306 30.9716 11.2336L31.1493 12.1947L35.5525 12.1947L35.4312 10.9094C35.1664 8.10328 33.8771 5.70564 31.7027 3.97534C29.4772 2.20438 26.3499 1.19198 22.6582 1.0476L21.4373 0.999999L21.4373 5.01605L22.5154 5.10535Z" stroke="#593DD2" stroke-width="1.5" stroke-miterlimit="10"/>
</svg>
