<svg width="46" height="22" viewBox="0 0 46 22" fill="none" xmlns="http://www.w3.org/2000/svg">
<path d="M28.25 11C28.25 13.7523 26.7813 16.2981 24.2998 18.1807C21.8177 20.0636 18.3555 21.25 14.5 21.25C10.6445 21.25 7.18229 20.0636 4.70024 18.1807C2.21871 16.2981 0.75 13.7523 0.75 11C0.75 8.24775 2.21871 5.70189 4.70024 3.81934C7.18229 1.93641 10.6445 0.75 14.5 0.75C18.3555 0.75 21.8177 1.93641 24.2998 3.81934C26.7813 5.70189 28.25 8.24775 28.25 11Z" stroke="#593DD2" stroke-width="1.5"/>
<path d="M45.25 11C45.25 13.7523 43.7813 16.2981 41.2998 18.1807C38.8177 20.0636 35.3555 21.25 31.5 21.25C27.6445 21.25 24.1823 20.0636 21.7002 18.1807C19.2187 16.2981 17.75 13.7523 17.75 11C17.75 8.24775 19.2187 5.70189 21.7002 3.81934C24.1823 1.93641 27.6445 0.75 31.5 0.75C35.3555 0.75 38.8177 1.93641 41.2998 3.81934C43.7813 5.70189 45.25 8.24775 45.25 11Z" stroke="#593DD2" stroke-width="1.5"/>
</svg>
