<svg width="39" height="30" viewBox="0 0 39 30" fill="none" xmlns="http://www.w3.org/2000/svg">
<path d="M5.21154 4.66649C8.24205 2.1642 12.7525 0.596137 18.727 0.504272C18.2491 4.23894 16.4973 7.49102 13.517 9.92018C10.4807 12.395 6.13964 14.0387 0.508948 14.4293C0.640883 10.5249 2.23094 7.12758 5.21154 4.66649Z" stroke="#7000FF"/>
<path d="M13.5221 20.0512C16.5069 22.4805 18.2681 25.7419 18.763 29.4956C12.7704 29.4036 8.25101 27.8354 5.21604 25.3331C2.23064 22.8717 0.640418 19.4739 0.508889 15.5688C6.13993 15.9414 10.4813 17.5763 13.5221 20.0512Z" stroke="#7000FF"/>
<path d="M25.2669 9.87869C22.3239 7.45551 20.5906 4.22265 20.1131 0.507815C26.0086 0.636301 30.4515 2.21201 33.4392 4.70772C36.3776 7.16228 37.9497 10.54 38.0984 14.4252C32.547 13.9981 28.2647 12.3469 25.2669 9.87869Z" stroke="#7000FF"/>
<path d="M33.4538 25.2632C30.4612 27.7593 26.0089 29.3438 20.1134 29.4903C20.5912 25.7762 22.3243 22.544 25.2669 20.1212C28.2651 17.6526 32.5482 16.0013 38.1007 15.5745C37.9683 19.4399 36.3971 22.8083 33.4538 25.2632Z" stroke="#7000FF"/>
</svg>
