<svg width="75" height="62" viewBox="0 0 75 62" fill="none" xmlns="http://www.w3.org/2000/svg">
<path d="M49.6681 41.8215C44.5947 45.8588 41.5863 51.4535 40.9685 58.0009L40.6855 61H50.9593L51.374 58.7574C52.8865 50.584 60.0781 45.3719 71.105 44.4582L73.6196 44.2498V34.8797L70.7714 34.9908C62.1577 35.3272 54.8607 37.6894 49.6681 41.8215Z" stroke="#593DD2" stroke-width="1.5" stroke-miterlimit="10"/>
<path d="M24.9515 41.8215C19.7589 37.6894 12.4619 35.3272 3.84825 34.9908L1 34.8797V44.2498L3.51462 44.4582C14.5416 45.3719 21.7331 50.584 23.2456 58.7574L23.6607 61H33.9345L33.6515 58.0009C33.0333 51.4535 30.0249 45.8588 24.9515 41.8215Z" stroke="#593DD2" stroke-width="1.5" stroke-miterlimit="10"/>
<path d="M23.2456 3.24337C21.7331 11.4168 14.5416 16.6289 3.51502 17.5422L1 17.7506V27.1211L3.84825 27.01C12.4619 26.6731 19.7589 24.3109 24.9515 20.1792C30.0249 16.1416 33.0333 10.5472 33.6515 3.99983L33.9345 1.00077H23.6607L23.2456 3.24337Z" stroke="#593DD2" stroke-width="1.5" stroke-miterlimit="10"/>
<path d="M71.1046 17.5412C60.0781 16.6279 52.8865 11.4158 51.374 3.2424L50.9593 0.999795H40.6855L40.9685 3.99885C41.5863 10.5463 44.5947 16.1406 49.6681 20.1779C54.8607 24.31 62.1577 26.6722 70.7714 27.009L73.62 27.1201V17.7496L71.1046 17.5412Z" stroke="#593DD2" stroke-width="1.5" stroke-miterlimit="10"/>
</svg>
