<svg width="78" height="62" viewBox="0 0 78 62" fill="none" xmlns="http://www.w3.org/2000/svg">
<path d="M38.9266 9.43833C57.1799 9.43833 66.6905 18.7125 66.6905 31.001C66.6905 43.2876 57.1799 52.5625 38.9266 52.5625C20.6725 52.5625 11.1611 43.2876 11.1611 31.001C11.1611 18.7125 20.6725 9.43833 38.9266 9.43833Z" stroke="#593DD2" stroke-width="1.5" stroke-miterlimit="10"/>
<path d="M66.6904 16.8876V45.1133C73.3958 42.567 76.8514 37.3321 76.8514 31.0008C76.8514 24.6684 73.3958 19.4335 66.6904 16.8876Z" stroke="#593DD2" stroke-width="1.5" stroke-miterlimit="10"/>
<path d="M11.161 16.8876V45.1133C4.45566 42.567 1 37.3321 1 31.0008C1 24.6684 4.45566 19.4335 11.161 16.8876Z" stroke="#593DD2" stroke-width="1.5" stroke-miterlimit="10"/>
<path d="M58.3258 9.4375C55.1074 4.31846 48.5824 0.999604 38.9267 0.999604C29.2702 0.999604 22.7448 4.31846 19.5264 9.4375H58.3258Z" stroke="#593DD2" stroke-width="1.5" stroke-miterlimit="10"/>
<path d="M19.5264 52.5621C22.7448 57.6811 29.2698 61 38.9255 61C48.582 61 55.107 57.6811 58.3258 52.5621H19.5264Z" stroke="#593DD2" stroke-width="1.5" stroke-miterlimit="10"/>
</svg>
